<svg xmlns="http://www.w3.org/2000/svg" viewBox="0 0 16 16" shape-rendering="crispEdges"><clipPath id="t"><rect width="16" height="16" rx="3.5"/></clipPath><rect width="16" height="16" rx="3.5" fill="#b91c1c" shape-rendering="auto"/><g clip-path="url(#t)"><rect x="10" y="2" width="3" height="1" fill="#131311"/><rect x="9" y="3" width="5" height="1" fill="#131311"/><rect x="9" y="4" width="2" height="1" fill="#131311"/><rect x="11" y="4" width="1" height="1" fill="#fcfcfa"/><rect x="12" y="4" width="4" height="1" fill="#131311"/><rect x="9" y="5" width="5" height="1" fill="#131311"/><rect x="8" y="6" width="5" height="1" fill="#131311"/><rect x="6" y="7" width="7" height="1" fill="#131311"/><rect x="5" y="8" width="3" height="1" fill="#131311"/><rect x="8" y="8" width="2" height="1" fill="#4a4943"/><rect x="10" y="8" width="3" height="1" fill="#131311"/><rect x="4" y="9" width="3" height="1" fill="#131311"/><rect x="7" y="9" width="3" height="1" fill="#4a4943"/><rect x="10" y="9" width="2" height="1" fill="#131311"/><rect x="3" y="10" width="3" height="1" fill="#131311"/><rect x="6" y="10" width="3" height="1" fill="#4a4943"/><rect x="9" y="10" width="3" height="1" fill="#131311"/><rect x="2" y="11" width="10" height="1" fill="#131311"/><rect x="1" y="12" width="3" height="1" fill="#131311"/><rect x="6" y="12" width="1" height="1" fill="#131311"/><rect x="9" y="12" width="1" height="1" fill="#131311"/><rect x="0" y="13" width="2" height="1" fill="#131311"/><rect x="6" y="13" width="1" height="1" fill="#131311"/><rect x="9" y="13" width="1" height="1" fill="#131311"/><rect x="4" y="14" width="8" height="1" fill="#131311"/></g></svg>
